/* XPM */
static char *_d68c97df7cb4739e9bc4cfed1e87ddf1blV1cUByy3f3tb5[] = {
/* columns rows colors chars-per-pixel */
"32 32 15 1 ",
"  c #2C2308",
". c #202020",
"X c #542508",
"o c #503F0C",
"O c #7C761D",
"+ c #853B0D",
"@ c #843C0F",
"# c #8A6C13",
"$ c #8B6D14",
"% c #FF7F2F",
"& c #CBC23A",
"* c #CCC33B",
"= c #CBC23C",
"- c #CDC43C",
"; c #FFF892",
/* pixels */
"----=.%++++++++ ooo$$$$$$.;-----",
"----O.%+++++++X.o$$$$$$$-.;-----",
"----O.%+++++++X.o$$$$$$$-.;-----",
"----O.%+++++++X.o$$$$$$$-.;-----",
"----O.%+++++++X.#$$$$$$$-.;-----",
"---OO.++++++XX.o.$$$$$$--..-----",
"-OO..;..+++X..o$$..$$$-..%+..---",
"O..;;---..X.oo$$$$$..-.%%++++..&",
".;;-------.o$$$$$$$$$.%+++++++@.",
";--------O.o$$$$$$$$-.%+++++++X.",
";--------O.o$$$$$$$$-.%+++++++X.",
";--------O.o$$$$$$$$-.%+++++++X.",
"---------O.o$$$$$$$$-.%+++++++X.",
".-------OO.$$$$$$$$--.++++++XX.;",
"-..---OO..%..$$$$--..;..++XX..;-",
"---..O..%%+++..$-..;;---.X..;;--",
"-----.%%+++++++..;;------.;;----",
"----O.%+++++++X.;-------O.;-----",
"----O.%+++++++X.;-------O.;-----",
"----O.%+++++++X.;-------O.;-----",
"----O.%+++++++X.--------O.------",
"---OO.+++++++X.;.------OO..-----",
"-OO..;..+++XX.;--..---O..%+..---",
"O..;;---..X..;-----..O.%%++++..-",
".;;-------.;;--------.%++++++++.",
";--------O.;*-------O.%+++++++X.",
";--------O.;*-------O.%+++++++X.",
";--------O.;*-------O.%+++++++X.",
"---------O.;*-------O.%+++++++X.",
".-------OO.**------OO.++++++XXX.",
"-..---OO..%..----OO..o..++XX...;",
"---..O..%%+++..-O..oo$$$.X..;;;-"
};
